<?xml version="1.0" encoding="UTF-8" standalone="no"?>
<!-- Created with Inkscape (http://www.inkscape.org/) -->

<svg
   xmlns:dc="http://purl.org/dc/elements/1.1/"
   xmlns:cc="http://creativecommons.org/ns#"
   xmlns:rdf="http://www.w3.org/1999/02/22-rdf-syntax-ns#"
   xmlns:svg="http://www.w3.org/2000/svg"
   xmlns="http://www.w3.org/2000/svg"
   xmlns:sodipodi="http://sodipodi.sourceforge.net/DTD/sodipodi-0.dtd"
   xmlns:inkscape="http://www.inkscape.org/namespaces/inkscape"
   id="svg2"
   version="1.1"
   inkscape:version="0.48.3.1 r9886"
   width="481.88974"
   height="659.05511"
   xml:space="preserve"
   sodipodi:docname="190114_jacket.svg"><metadata
     id="metadata8"><rdf:RDF><cc:Work
         rdf:about=""><dc:format>image/svg+xml</dc:format><dc:type
           rdf:resource="http://purl.org/dc/dcmitype/StillImage" /><dc:title /></cc:Work></rdf:RDF></metadata><defs
     id="defs6" /><sodipodi:namedview
     pagecolor="#cccccc"
     bordercolor="#666666"
     borderopacity="1"
     objecttolerance="10"
     gridtolerance="10"
     guidetolerance="10"
     inkscape:pageopacity="1"
     inkscape:pageshadow="2"
     inkscape:window-width="640"
     inkscape:window-height="480"
     id="namedview4"
     showgrid="false"
     inkscape:zoom="0.35616741"
     inkscape:cx="486.99938"
     inkscape:cy="333.87006"
     inkscape:current-layer="g3113"
     units="px"
     guidecolor="#ff0000"
     guideopacity="0.47058824"
     guidehicolor="#00ff00"
     guidehiopacity="1"
     inkscape:snap-global="false"
     showguides="true"
     showborder="false"
     inkscape:showpageshadow="false"><inkscape:grid
       type="xygrid"
       id="grid4326"
       empspacing="5"
       visible="true"
       enabled="true"
       snapvisiblegridlinesonly="true"
       units="mm"
       spacingx="8mm"
       spacingy="8mm"
       originx="10mm" /><sodipodi:guide
       position="481.88974,-1e-05"
       orientation="-659.05512,0"
       id="guide2997" /><sodipodi:guide
       position="-1.9e-05,-1e-05"
       orientation="-659.05512,0"
       id="guide3009" /><sodipodi:guide
       position="-1.9e-05,659.05511"
       orientation="0,963.77952"
       id="guide3011" /><sodipodi:guide
       position="963.7795,659.05511"
       orientation="659.05512,0"
       id="guide3013" /><sodipodi:guide
       position="963.7795,-1e-05"
       orientation="0,-963.77952"
       id="guide3015" /><sodipodi:guide
       position="10.629901,648.42519"
       orientation="0,460.62992"
       id="guide3019" /><sodipodi:guide
       position="471.25982,648.42519"
       orientation="637.79526,0"
       id="guide3021" /><sodipodi:guide
       position="471.25982,10.62992"
       orientation="0,-460.62992"
       id="guide3023" /><sodipodi:guide
       position="10.629901,10.62992"
       orientation="-637.79526,-1.7763568e-14"
       id="guide3025" /><sodipodi:guide
       position="492.51969,648.42519"
       orientation="0,460.62992"
       id="guide3029" /><sodipodi:guide
       position="953.14961,648.42519"
       orientation="637.79526,0"
       id="guide3031" /><sodipodi:guide
       position="953.14961,10.62992"
       orientation="0,-460.62992"
       id="guide3033" /><sodipodi:guide
       position="492.51969,10.62992"
       orientation="-637.79526,0"
       id="guide3035" /></sodipodi:namedview><g
     inkscape:groupmode="layer"
     id="layer1"
     inkscape:label="XX_PAGE"
     style="display:inline"
     transform="translate(0,4.7460937e-6)"
     sodipodi:insensitive="true"><path
       style="fill:#ff5555;stroke:none"
       d="m 481.88974,-1.5000001e-6 481.88976,0 0,659.0551215 -481.88976,0 z"
       id="evenplus"
       inkscape:connector-curvature="0"
       sodipodi:nodetypes="ccccc" /><path
       sodipodi:nodetypes="ccccc"
       inkscape:connector-curvature="0"
       id="oddplus"
       d="m -1.9e-5,-1.5000001e-6 481.889759,0 0,659.0551215 -481.889759,0 z"
       style="fill:#ff5555;stroke:none" /><path
       sodipodi:nodetypes="ccccc"
       inkscape:connector-curvature="0"
       id="even"
       d="m 481.88974,10.629925 471.25984,0 0,637.795265 -471.25984,0 z"
       style="fill:#ffffff;stroke:none" /><path
       sodipodi:nodetypes="ccccc"
       inkscape:connector-curvature="0"
       id="odd"
       d="m 10.629901,10.629925 471.259839,0 0,637.795265 -471.259839,0 z"
       style="fill:#ffffff;stroke:none" /><path
       sodipodi:nodetypes="ccccc"
       inkscape:connector-curvature="0"
       id="evenbind"
       d="m 481.88974,-1.5000001e-6 10.62992,0 0,659.0551215 -10.62992,0 z"
       style="color:#000000;fill:#ff5555;fill-opacity:1;stroke:none;stroke-width:1;marker:none;visibility:visible;display:inline" /><path
       style="color:#000000;fill:#ff5555;fill-opacity:1;stroke:none;stroke-width:1;marker:none;visibility:visible;display:inline"
       d="m 471.25982,-1.5000001e-6 10.62992,0 0,659.0551215 -10.62992,0 z"
       id="oddbind"
       inkscape:connector-curvature="0"
       sodipodi:nodetypes="ccccc" /><path
       style="fill:none;stroke:#000000;stroke-width:1"
       d="m 481.88974,669.05512 0,-679.055122"
       id="bind"
       inkscape:connector-curvature="0"
       sodipodi:nodetypes="cc" /></g><g
     inkscape:groupmode="layer"
     id="layer2"
     inkscape:label="AUSSEN"
     style="display:inline"
     sodipodi:insensitive="true"><path
       style="fill:#ffff00;stroke:none;display:inline"
       d="M 0,0.00543475 0,659.06793 l 963.78125,0 0,-659.06249525 z"
       id="evenplus-3"
       inkscape:connector-curvature="0"
       sodipodi:nodetypes="ccccc" /><path
       inkscape:connector-curvature="0"
       style="fill:none;stroke:#000000;stroke-width:1"
       d="M 14.10404,0.00543475 0,14.109475 M 0,42.393745 42.388311,0.00543475 m 28.284271,0 L 0,70.678015 M 0,98.962285 98.956853,0.00543475 m 28.284267,0 L 0,127.24655 M 0,155.53083 155.5254,0.00543475 m 28.28427,0 L 0,183.8151 M 0,212.09937 212.09394,0.00543475 m 28.28427,0 L 0,240.38364 M 0,268.66791 268.66248,0.00543475 m 28.28427,0 L 0,296.95218 M 0,325.23645 325.23102,0.00543475 m 28.28427,0 L 0,353.52072 M 0,381.805 381.79957,0.00543475 m 28.28427,0 L 0,410.08927 M 0,438.37354 438.36811,0.00543475 m 28.28427,0 L 0,466.65781 M 0,494.94208 494.93665,0.00543475 m 28.28427,0 L 0,523.22635 M 0,551.51062 551.50519,0.00543475 m 28.28427,0 L 0,579.79489 M 0,608.07913 608.07374,0.00543475 m 28.28427,0 L 0,636.36343 M 5.579778,659.06793 664.64228,0.00543475 m 28.28427,0 L 33.86405,659.06793 m 28.284271,0 L 721.21082,0.00543475 m 28.28427,0 L 90.432592,659.06793 m 28.284268,0 659.0625,-659.06249525 m 28.28427,0 L 147.00113,659.06793 m 28.28428,0 659.0625,-659.06249525 m 28.28427,0 L 203.56968,659.06793 m 28.28427,0 659.0625,-659.06249525 m 28.28427,0 L 260.13822,659.06793 m 28.28427,0 L 947.48499,0.00543475 M 963.78125,11.993445 316.70676,659.06793 m 28.28427,0 618.79022,-618.790215 m 0,28.28427 L 373.2753,659.06793 m 28.28428,0 562.22167,-562.221665 m 0,28.284265 -533.9374,533.9374 m 28.28427,0 505.65313,-505.65313 m 0,28.28427 -477.36886,477.36886 m 28.28427,0 449.08459,-449.08459 m 0,28.28427 -420.80032,420.80032 m 28.28427,0 392.51605,-392.51605 m 0,28.28428 -364.23177,364.23177 m 28.28427,0 335.9475,-335.9475 m 0,28.28427 -307.66323,307.66323 m 28.28427,0 279.37896,-279.37896 m 0,28.28427 -251.09469,251.09469 m 28.28427,0 222.81042,-222.81042 m 0,28.28427 -194.52615,194.52615 m 28.28427,0 166.24188,-166.24188 m 0,28.28428 -137.95761,137.9576 m 28.28428,0 109.67333,-109.67333 m 0,28.28427 -81.38906,81.38906 m 28.28427,0 53.10479,-53.10479 m 0,28.28429 -24.82052,24.8205"
       id="path3051" /></g><g
     inkscape:groupmode="layer"
     id="layer4"
     inkscape:label="AUSSEN"
     style="display:inline"
     sodipodi:insensitive="true"><text
   xml:space="preserve"
   style="font-size:46.4069519px;font-style:normal;font-variant:normal;font-weight:normal;font-stretch:normal;text-align:start;line-height:100%;letter-spacing:0.5px;word-spacing:0px;writing-mode:lr-tb;text-anchor:start;fill:#000000;fill-opacity:1;stroke:none;font-family:Bangers;-inkscape-font-specification:Bangers"
   x="688.18237"
   y="101.58249"
   id="text3084"
   sodipodi:linespacing="100%"><tspan
     sodipodi:role="line"
     id="tspan3086"
     x="688.18237"
     y="101.58249">AUSSEN FRONT</tspan></text>

<text
   sodipodi:linespacing="100%"
   id="text3088"
   y="101.58249"
   x="57.182373"
   style="font-size:46.4069519px;font-style:normal;font-variant:normal;font-weight:normal;font-stretch:normal;text-align:start;line-height:100%;letter-spacing:0.5px;word-spacing:0px;writing-mode:lr-tb;text-anchor:start;fill:#000000;fill-opacity:1;stroke:none;font-family:Bangers;-inkscape-font-specification:Bangers"
   xml:space="preserve"><tspan
     y="101.58249"
     x="57.182373"
     id="tspan3090"
     sodipodi:role="line">AUSSEN BACK</tspan></text>

</g><g
     inkscape:groupmode="layer"
     id="layer3"
     inkscape:label="INNEN"
     style="display:inline"
     sodipodi:insensitive="true"><path
       style="fill:#ffd5d5;stroke:none;display:inline"
       d="M 0,0.00543475 0,659.06793 l 963.78125,0 0,-659.06249525 z"
       id="evenplus-3-6"
       inkscape:connector-curvature="0"
       sodipodi:nodetypes="ccccc" /><path
       inkscape:connector-curvature="0"
       style="fill:none;stroke:#ffffff;stroke-width:1"
       d="M 14.10404,0.00543475 0,14.109475 M 0,42.393745 42.388311,0.00543475 m 28.284271,0 L 0,70.678015 M 0,98.962285 98.956853,0.00543475 m 28.284267,0 L 0,127.24655 M 0,155.53083 155.5254,0.00543475 m 28.28427,0 L 0,183.8151 M 0,212.09937 212.09394,0.00543475 m 28.28427,0 L 0,240.38364 M 0,268.66791 268.66248,0.00543475 m 28.28427,0 L 0,296.95218 M 0,325.23645 325.23102,0.00543475 m 28.28427,0 L 0,353.52072 M 0,381.805 381.79957,0.00543475 m 28.28427,0 L 0,410.08927 M 0,438.37354 438.36811,0.00543475 m 28.28427,0 L 0,466.65781 M 0,494.94208 494.93665,0.00543475 m 28.28427,0 L 0,523.22635 M 0,551.51062 551.50519,0.00543475 m 28.28427,0 L 0,579.79489 M 0,608.07913 608.07374,0.00543475 m 28.28427,0 L 0,636.36343 M 5.579778,659.06793 664.64228,0.00543475 m 28.28427,0 L 33.86405,659.06793 m 28.284271,0 L 721.21082,0.00543475 m 28.28427,0 L 90.432592,659.06793 m 28.284268,0 659.0625,-659.06249525 m 28.28427,0 L 147.00113,659.06793 m 28.28428,0 659.0625,-659.06249525 m 28.28427,0 L 203.56968,659.06793 m 28.28427,0 659.0625,-659.06249525 m 28.28427,0 L 260.13822,659.06793 m 28.28427,0 L 947.48499,0.00543475 M 963.78125,11.993445 316.70676,659.06793 m 28.28427,0 618.79022,-618.790215 m 0,28.28427 L 373.2753,659.06793 m 28.28428,0 562.22167,-562.221665 m 0,28.284265 -533.9374,533.9374 m 28.28427,0 505.65313,-505.65313 m 0,28.28427 -477.36886,477.36886 m 28.28427,0 449.08459,-449.08459 m 0,28.28427 -420.80032,420.80032 m 28.28427,0 392.51605,-392.51605 m 0,28.28428 -364.23177,364.23177 m 28.28427,0 335.9475,-335.9475 m 0,28.28427 -307.66323,307.66323 m 28.28427,0 279.37896,-279.37896 m 0,28.28427 -251.09469,251.09469 m 28.28427,0 222.81042,-222.81042 m 0,28.28427 -194.52615,194.52615 m 28.28427,0 166.24188,-166.24188 m 0,28.28428 -137.95761,137.9576 m 28.28428,0 109.67333,-109.67333 m 0,28.28427 -81.38906,81.38906 m 28.28427,0 53.10479,-53.10479 m 0,28.28429 -24.82052,24.8205"
       id="path3051-7" /></g><g
     style="display:inline"
     inkscape:label="INNEN"
     id="g3113"
     inkscape:groupmode="layer"
     sodipodi:insensitive="true"><text
   sodipodi:linespacing="100%"
   id="text3115"
   y="101.58249"
   x="716.18237"
   style="font-size:46.4069519px;font-style:normal;font-variant:normal;font-weight:normal;font-stretch:normal;text-align:start;line-height:100%;letter-spacing:0.5px;word-spacing:0px;writing-mode:lr-tb;text-anchor:start;fill:#000000;fill-opacity:1;stroke:none;font-family:Bangers;-inkscape-font-specification:Bangers"
   xml:space="preserve"><tspan
     y="101.58249"
     x="716.18237"
     id="tspan3117"
     sodipodi:role="line">INNEN BACK</tspan></text>

<text
   xml:space="preserve"
   style="font-size:46.4069519px;font-style:normal;font-variant:normal;font-weight:normal;font-stretch:normal;text-align:start;line-height:100%;letter-spacing:0.5px;word-spacing:0px;writing-mode:lr-tb;text-anchor:start;fill:#000000;fill-opacity:1;stroke:none;font-family:Bangers;-inkscape-font-specification:Bangers"
   x="57.182373"
   y="101.58249"
   id="text3119"
   sodipodi:linespacing="100%"><tspan
     sodipodi:role="line"
     id="tspan3121"
     x="57.182373"
     y="101.58249">INNEN FRONT</tspan></text>

</g></svg>