<?xml version="1.0" encoding="UTF-8" standalone="no"?>
<!-- Created with Inkscape (http://www.inkscape.org/) -->

<svg
   xmlns:dc="http://purl.org/dc/elements/1.1/"
   xmlns:cc="http://creativecommons.org/ns#"
   xmlns:rdf="http://www.w3.org/1999/02/22-rdf-syntax-ns#"
   xmlns:svg="http://www.w3.org/2000/svg"
   xmlns="http://www.w3.org/2000/svg"
   xmlns:sodipodi="http://sodipodi.sourceforge.net/DTD/sodipodi-0.dtd"
   xmlns:inkscape="http://www.inkscape.org/namespaces/inkscape"
   width="694.48816"
   height="907.08661"
   id="svg2"
   version="1.1"
   inkscape:version="0.48.3.1 r9886"
   sodipodi:docname="190512_backpages.svg">
  <defs
     id="defs4" />
  <sodipodi:namedview
     id="base"
     pagecolor="#cccccc"
     bordercolor="#666666"
     borderopacity="1.0"
     inkscape:pageopacity="1"
     inkscape:pageshadow="2"
     inkscape:zoom="0.43804512"
     inkscape:cx="729.54533"
     inkscape:cy="308.94142"
     inkscape:document-units="px"
     inkscape:current-layer="g3852"
     showgrid="false"
     units="mm"
     inkscape:showpageshadow="false"
     showborder="false" />
  <metadata
     id="metadata7">
    <rdf:RDF>
      <cc:Work
         rdf:about="">
        <dc:format>image/svg+xml</dc:format>
        <dc:type
           rdf:resource="http://purl.org/dc/dcmitype/StillImage" />
        <dc:title />
      </cc:Work>
    </rdf:RDF>
  </metadata>
  <g
     inkscape:label="XX_PAGE"
     inkscape:groupmode="layer"
     id="layer1"
     style="display:inline"
     sodipodi:insensitive="true">
    <path
       style="fill:#ff5555;stroke:none"
       d="m 694.48819,-4.1732282e-6 -694.48819,0 L 0,907.08661 l 694.48819,0 z"
       id="rect2985"
       inkscape:connector-curvature="0" />
    <path
       inkscape:connector-curvature="0"
       id="path2990"
       d="m 683.85829,10.629918 -673.22835,0 0,885.826772 673.22835,0 z"
       style="fill:#ffffff;stroke:none" />
    <path
       inkscape:connector-curvature="0"
       id="path4048"
       d="m 694.48819,-4.1732284e-6 694.48821,0 0,907.0866141732283 -694.48821,0 z"
       style="fill:#ff5555;stroke:none" />
    <path
       style="fill:#ffffff;stroke:none"
       d="m 705.11809,10.629918 673.22831,0 0,885.826772 -673.2283,0 z"
       id="path4050"
       inkscape:connector-curvature="0" />
  </g>
  <g
     inkscape:groupmode="layer"
     id="layer2"
     inkscape:label="XX_REF"
     style="display:none"
     sodipodi:insensitive="true">
    <path
       inkscape:connector-curvature="0"
       id="path3190"
       d="m 648.4252,825.59055 -35.43307,0 0,90.86614 35.43307,0 z"
       style="color:#000000;fill:#00ff00;fill-opacity:1;fill-rule:nonzero;stroke:none;stroke-width:1;marker:none;visibility:visible;display:inline;overflow:visible;enable-background:accumulate"
       sodipodi:nodetypes="ccccc" />
    <path
       style="color:#000000;fill:#00ff00;fill-opacity:1;fill-rule:nonzero;stroke:none;stroke-width:1;marker:none;visibility:visible;display:inline;overflow:visible;enable-background:accumulate"
       d="m 648.4252,-9.370082 -35.43307,0 0,90.86614 35.43307,0 z"
       id="path3192"
       inkscape:connector-curvature="0"
       sodipodi:nodetypes="ccccc" />
    <path
       inkscape:connector-curvature="0"
       id="path3194"
       d="m 577.55906,-20.000001 0,947.086611"
       style="color:#000000;fill:none;stroke:#000000;stroke-width:0.35433072;stroke-miterlimit:4;stroke-dasharray:none;marker:none;visibility:visible;display:inline;overflow:visible;enable-background:accumulate"
       sodipodi:nodetypes="cc" />
    <path
       sodipodi:nodetypes="cc"
       style="color:#000000;fill:none;stroke:#000000;stroke-width:0.35433072;stroke-miterlimit:4;stroke-dasharray:none;marker:none;visibility:visible;display:inline;overflow:visible;enable-background:accumulate"
       d="m 471.25984,-20.000001 0,947.086611"
       id="path3964"
       inkscape:connector-curvature="0" />
    <path
       inkscape:connector-curvature="0"
       id="path4052"
       d="m 705.11811,-1.1132814e-6 106.29921,0 0,907.0866111132813 -106.29921,0 z"
       style="color:#000000;fill:#ffff00;fill-opacity:1;fill-rule:nonzero;stroke:none;stroke-width:1;marker:none;visibility:visible;display:inline;overflow:visible;enable-background:accumulate" />
    <path
       style="color:#000000;fill:#00ff00;fill-opacity:1;fill-rule:nonzero;stroke:none;stroke-width:1;marker:none;visibility:visible;display:inline;overflow:visible;enable-background:accumulate"
       d="m 740.55118,825.59055 35.43307,0 0,90.86614 -35.43307,0 z"
       id="path4054"
       inkscape:connector-curvature="0"
       sodipodi:nodetypes="ccccc" />
    <path
       inkscape:connector-curvature="0"
       id="path4056"
       d="m 740.55118,-9.370082 35.43307,0 0,90.86614 -35.43307,0 z"
       style="color:#000000;fill:#00ff00;fill-opacity:1;fill-rule:nonzero;stroke:none;stroke-width:1;marker:none;visibility:visible;display:inline;overflow:visible;enable-background:accumulate"
       sodipodi:nodetypes="ccccc" />
    <path
       sodipodi:nodetypes="cc"
       style="color:#000000;fill:none;stroke:#000000;stroke-width:0.35433072;stroke-miterlimit:4;stroke-dasharray:none;marker:none;visibility:visible;display:inline;overflow:visible;enable-background:accumulate"
       d="m 811.41732,-20.000001 0,947.086611"
       id="path4058"
       inkscape:connector-curvature="0" />
    <path
       inkscape:connector-curvature="0"
       id="path4060"
       d="m 917.71654,-20.000001 0,947.086611"
       style="color:#000000;fill:none;stroke:#000000;stroke-width:0.35433072;stroke-miterlimit:4;stroke-dasharray:none;marker:none;visibility:visible;display:inline;overflow:visible;enable-background:accumulate"
       sodipodi:nodetypes="cc" />
  </g>
  <g
     inkscape:groupmode="layer"
     id="layer3"
     inkscape:label="XX_1-2"
     style="display:none"
     sodipodi:insensitive="true">
    <path
       inkscape:connector-curvature="0"
       style="fill:none;stroke:#00ffff;stroke-width:1"
       d="M 21.259822,-1.1132812e-6 0,21.259819 M 0,49.544089 49.544093,-1.1132812e-6 m 28.284271,0 L 0,77.828359 M 0,106.11264 106.11264,-1.1132812e-6 m 28.28427,0 L 0,134.39691 M 0,162.68118 162.68118,-1.1132812e-6 m 28.28427,0 L 0,190.96545 M 0,219.24972 219.24972,-1.1132812e-6 m 28.28427,0 L 0,247.53399 M 0,275.81826 275.81826,-1.1132812e-6 m 28.28427,0 L 0,304.10253 M 0,332.38681 332.38681,-1.1132812e-6 m 28.28427,0 L 0,360.67108 M 0,388.95535 388.95535,-1.1132812e-6 m 28.28427,0 L 0,417.23962 M 0,445.52389 445.52389,-1.1132812e-6 m 28.28427,0 L 0,473.80816 M 0,502.09243 502.09243,-1.1132812e-6 m 28.28427,0 L 0,530.3767 M 0,558.66098 558.66098,-1.1132812e-6 m 28.28427,0 L 0,586.94525 M 0,615.22952 615.22952,-1.1132812e-6 m 28.28427,0 L 0,643.51379 M 0,671.79806 671.79806,-1.1132812e-6 M 694.48819,5.5941389 0,700.08233 M 0,728.3666 694.48819,33.878409 m 0,28.28427 L 0,756.65087 M 0,784.93515 694.48819,90.446959 m 0,28.284271 L 0,813.21942 M 0,841.50369 694.48819,147.0155 m 0,28.28427 L 0,869.78793 m 0,28.2843 694.48819,-694.48819 m 0,28.28427 -675.218318,675.21832 m 28.284271,0 646.934047,-646.93405 m 0,28.28427 -618.649776,618.64978 m 28.284276,0 590.3655,-590.3655 m 0,28.28427 -562.08123,562.08123 m 28.28427,0 533.79696,-533.79696 m 0,28.28427 -505.51269,505.51269 m 28.28427,0 477.22842,-477.22842 m 0,28.28427 -448.94415,448.94415 m 28.28427,0 420.65988,-420.65988 m 0,28.28427 -392.37561,392.37561 m 28.28428,0 364.09133,-364.09134 m 0,28.28428 -335.80706,335.80706 m 28.28427,0 307.52279,-307.52279 m 0,28.28427 -279.23852,279.23852 m 28.28427,0 250.95425,-250.95425 m 0,28.28427 -222.66998,222.66998 m 28.28427,0 194.38571,-194.38571 m 0,28.28427 -166.10144,166.10144 m 28.28427,0 137.81717,-137.81716 m 0,28.28427 -109.53289,109.53289 m 28.28427,0 81.24862,-81.24862 m 0,28.28427 -52.96435,52.96435 m 28.28427,0 24.68008,-24.6801"
       id="path3868" />
  </g>
  <g
     inkscape:groupmode="layer"
     id="layer4"
     inkscape:label="XX_1-2"
     style="display:none"
     sodipodi:insensitive="true">
    <path
       style="fill:#ffffff;stroke:none"
       d="m 36.065273,-20.50732 306.299217,0 0,177.16535 -306.299217,0 z"
       id="path3901"
       inkscape:connector-curvature="0"
       sodipodi:nodetypes="ccccc" />
    <path
       inkscape:connector-curvature="0"
       id="path3832"
       d="m 105.21488,63.500548 49.29134,53.149612 -98.582679,0 z"
       style="fill:#00ffff;stroke:none"
       sodipodi:nodetypes="cccc" />
    <path
       inkscape:connector-curvature="0"
       id="path3897"
       d="m 56.065273,-300.50732 106.299217,0 0,177.16535 -106.299217,0 z"
       style="fill:#00ffff;stroke:none" />
    <path
       sodipodi:nodetypes="cccc"
       style="fill:#ffffff;stroke:none"
       d="m 109.21488,-225.49945 44.29134,53.14961 -88.582679,0 z"
       id="path3899"
       inkscape:connector-curvature="0" />
  </g>
  <g
     inkscape:groupmode="layer"
     id="layer5"
     inkscape:label="1-2"
     sodipodi:insensitive="true"
     style="display:none">
    <path
       style="fill:#00ffff;stroke:none;display:inline"
       d="m 694.48819,-1.1132812e-6 -694.48819,0 L 0,907.08661 l 694.48819,0 z"
       id="rect2985-3"
       inkscape:connector-curvature="0" />
    <path
       inkscape:connector-curvature="0"
       id="path4048-6"
       d="m 694.48819,-1.1132812e-6 694.48821,0 0,907.0866111132811 -694.48821,0 z"
       style="fill:#00ffff;stroke:none;display:inline" />
  </g>
  <g
     inkscape:groupmode="layer"
     id="layer6"
     inkscape:label="1-2"
     sodipodi:insensitive="true"
     style="display:none">
    <text
       sodipodi:linespacing="141%"
       id="text3080"
       y="601.01611"
       x="973.13232"
       style="font-size:400px;font-style:normal;font-variant:normal;font-weight:bold;font-stretch:normal;text-align:start;line-height:140.99999666%;letter-spacing:0px;word-spacing:0px;writing-mode:lr-tb;text-anchor:start;fill:#ccffff;fill-opacity:1;stroke:none;display:inline;font-family:IBM Plex Mono;-inkscape-font-specification:IBM Plex Mono Bold"
       xml:space="preserve"><tspan
         y="601.01611"
         x="973.13232"
         id="tspan3082"
         sodipodi:role="line">2</tspan></text>
    <text
       xml:space="preserve"
       style="font-size:400px;font-style:normal;font-variant:normal;font-weight:bold;font-stretch:normal;text-align:start;line-height:140.99999666%;letter-spacing:0px;word-spacing:0px;writing-mode:lr-tb;text-anchor:start;fill:#ccffff;fill-opacity:1;stroke:none;display:inline;font-family:IBM Plex Mono;-inkscape-font-specification:IBM Plex Mono Bold"
       x="178.64409"
       y="601.01611"
       id="text3084"
       sodipodi:linespacing="141%"><tspan
         sodipodi:role="line"
         id="tspan3086"
         x="178.64409"
         y="601.01611">1</tspan></text>
  </g>
  <g
     sodipodi:insensitive="true"
     inkscape:label="3-4"
     id="g3810"
     inkscape:groupmode="layer"
     style="display:none">
    <path
       inkscape:connector-curvature="0"
       id="path3812"
       d="m 694.48819,-1.1132812e-6 -694.48819,0 L 0,907.08661 l 694.48819,0 z"
       style="fill:#00ffff;stroke:none;display:inline" />
    <path
       style="fill:#00ffff;stroke:none;display:inline"
       d="m 694.48819,-1.1132812e-6 694.48821,0 0,907.0866111132811 -694.48821,0 z"
       id="path3814"
       inkscape:connector-curvature="0" />
  </g>
  <g
     inkscape:label="3-4"
     id="g3816"
     inkscape:groupmode="layer"
     sodipodi:insensitive="true"
     style="display:none">
    <text
       xml:space="preserve"
       style="font-size:400px;font-style:normal;font-variant:normal;font-weight:bold;font-stretch:normal;text-align:start;line-height:140.99999666%;letter-spacing:0px;word-spacing:0px;writing-mode:lr-tb;text-anchor:start;fill:#ccffff;fill-opacity:1;stroke:none;display:inline;font-family:IBM Plex Mono;-inkscape-font-specification:IBM Plex Mono Bold"
       x="973.13232"
       y="601.01611"
       id="text3818"
       sodipodi:linespacing="141%"><tspan
         sodipodi:role="line"
         x="973.13232"
         y="601.01611"
         id="tspan3826">4</tspan></text>
    <text
       sodipodi:linespacing="141%"
       id="text3822"
       y="601.01611"
       x="178.64409"
       style="font-size:400px;font-style:normal;font-variant:normal;font-weight:bold;font-stretch:normal;text-align:start;line-height:140.99999666%;letter-spacing:0px;word-spacing:0px;writing-mode:lr-tb;text-anchor:start;fill:#ccffff;fill-opacity:1;stroke:none;display:inline;font-family:IBM Plex Mono;-inkscape-font-specification:IBM Plex Mono Bold"
       xml:space="preserve"><tspan
         y="601.01611"
         x="178.64409"
         id="tspan3824"
         sodipodi:role="line">3</tspan></text>
  </g>
  <g
     inkscape:groupmode="layer"
     id="g3840"
     inkscape:label="5-6"
     sodipodi:insensitive="true"
     style="display:none">
    <path
       style="fill:#00ffff;stroke:none;display:inline"
       d="m 694.48819,-1.1132812e-6 -694.48819,0 L 0,907.08661 l 694.48819,0 z"
       id="path3842"
       inkscape:connector-curvature="0" />
    <path
       inkscape:connector-curvature="0"
       id="path3844"
       d="m 694.48819,-1.1132812e-6 694.48821,0 0,907.0866111132811 -694.48821,0 z"
       style="fill:#00ffff;stroke:none;display:inline" />
  </g>
  <g
     inkscape:groupmode="layer"
     id="g3830"
     inkscape:label="5-6"
     sodipodi:insensitive="true"
     style="display:none">
    <text
       sodipodi:linespacing="141%"
       id="text3832"
       y="601.01611"
       x="973.13232"
       style="font-size:400px;font-style:normal;font-variant:normal;font-weight:bold;font-stretch:normal;text-align:start;line-height:140.99999666%;letter-spacing:0px;word-spacing:0px;writing-mode:lr-tb;text-anchor:start;fill:#ccffff;fill-opacity:1;stroke:none;display:inline;font-family:IBM Plex Mono;-inkscape-font-specification:IBM Plex Mono Bold"
       xml:space="preserve"><tspan
         id="tspan3834"
         y="601.01611"
         x="973.13232"
         sodipodi:role="line">6</tspan></text>
    <text
       xml:space="preserve"
       style="font-size:400px;font-style:normal;font-variant:normal;font-weight:bold;font-stretch:normal;text-align:start;line-height:140.99999666%;letter-spacing:0px;word-spacing:0px;writing-mode:lr-tb;text-anchor:start;fill:#ccffff;fill-opacity:1;stroke:none;display:inline;font-family:IBM Plex Mono;-inkscape-font-specification:IBM Plex Mono Bold"
       x="178.64409"
       y="601.01611"
       id="text3836"
       sodipodi:linespacing="141%"><tspan
         sodipodi:role="line"
         id="tspan3838"
         x="178.64409"
         y="601.01611">5</tspan></text>
  </g>
  <g
     sodipodi:insensitive="true"
     inkscape:label="7-8"
     id="g3846"
     inkscape:groupmode="layer">
    <path
       inkscape:connector-curvature="0"
       id="path3848"
       d="m 694.48819,-1.1132812e-6 -694.48819,0 L 0,907.08661 l 694.48819,0 z"
       style="fill:#00ffff;stroke:none;display:inline" />
    <path
       style="fill:#00ffff;stroke:none;display:inline"
       d="m 694.48819,-1.1132812e-6 694.48821,0 0,907.0866111132811 -694.48821,0 z"
       id="path3850"
       inkscape:connector-curvature="0" />
  </g>
  <g
     inkscape:label="7-8"
     id="g3852"
     inkscape:groupmode="layer"
     sodipodi:insensitive="true">
    <text
       xml:space="preserve"
       style="font-size:400px;font-style:normal;font-variant:normal;font-weight:bold;font-stretch:normal;text-align:start;line-height:140.99999666%;letter-spacing:0px;word-spacing:0px;writing-mode:lr-tb;text-anchor:start;fill:#ccffff;fill-opacity:1;stroke:none;display:inline;font-family:IBM Plex Mono;-inkscape-font-specification:IBM Plex Mono Bold"
       x="973.13232"
       y="601.01611"
       id="text3854"
       sodipodi:linespacing="141%"><tspan
         sodipodi:role="line"
         x="973.13232"
         y="601.01611"
         id="tspan3856">8</tspan></text>
    <text
       sodipodi:linespacing="141%"
       id="text3858"
       y="601.01611"
       x="178.64409"
       style="font-size:400px;font-style:normal;font-variant:normal;font-weight:bold;font-stretch:normal;text-align:start;line-height:140.99999666%;letter-spacing:0px;word-spacing:0px;writing-mode:lr-tb;text-anchor:start;fill:#ccffff;fill-opacity:1;stroke:none;display:inline;font-family:IBM Plex Mono;-inkscape-font-specification:IBM Plex Mono Bold"
       xml:space="preserve"><tspan
         y="601.01611"
         x="178.64409"
         id="tspan3860"
         sodipodi:role="line">7</tspan></text>
  </g>
</svg>
